<svg height="472pt" viewBox="-1 0 472 472.65667" width="472pt" xmlns="http://www.w3.org/2000/svg"><path d="m422.207031 238.726562-1.410156-57.453124c-.648437-12.816407 8.886719-23.886719 21.660156-25.136719l19.699219 124.25c.242188 15.59375-4.550781 30.855469-13.660156 43.519531l-48.199219 58.328125c-4.4375 5.363281-6.628906 12.238281-6.109375 19.179687l1.289062 17.230469-67.109374-31.960937.257812-.546875c-5.320312-26.167969 4.429688-53.117188 25.261719-69.820313l3.828125-3.070312c5.992187-4.808594 10.820312-10.90625 14.121094-17.839844l18.421874-38.679688c5.785157-12.140624 18.566407-19.339843 31.949219-18zm0 0" fill="#f7caa5"/><path d="m395.476562 418.644531 7.558594 3.601563-20.199218 42.410156-93.078126-44.320312 20.199219-42.421876 18.410157 8.769532zm0 0" fill="#00efd1"/><path d="m375.328125 133.253906h2.46875c0 23.851563-19.171875 37.242188-41.921875 37.242188s-41.617188-13.089844-41.617188-37.242188zm0 0" fill="#00efd1"/><g fill="#00acea"><path d="m275.925781 199.734375v22.050781h-81.359375v-22.050781zm0 0"/><path d="m235.246094 180.84375h15.480468c10.433594 0 18.894532 8.457031 18.898438 18.890625h-68.757812c.003906-10.433594 8.464843-18.890625 18.898437-18.890625zm0 0"/><path d="m252.644531 27.324219c-1.011719 9.414062-9.335937 16.304687-18.769531 15.539062-9.4375-.761719-16.546875-8.90625-16.027344-18.359375.515625-9.449218 8.46875-16.769531 17.929688-16.5 9.464844.265625 16.988281 8.023438 16.96875 17.492188.003906.609375-.03125 1.222656-.101563 1.828125zm0 0"/></g><path d="m75.015625 418.644531 67.109375-31.960937 18.410156-8.769532 20.203125 42.421876-93.082031 44.320312-20.199219-42.410156zm0 0" fill="#00efd1"/><path d="m173.476562 133.253906h2.761719c0 23.851563-19.160156 37.242188-41.921875 37.242188-22.761718 0-41.621094-13.089844-41.621094-37.242188zm0 0" fill="#00efd1"/><path d="m48.285156 238.726562c13.382813-1.339843 26.164063 5.859376 31.953125 18l18.417969 38.679688c3.300781 6.933594 8.128906 13.03125 14.121094 17.839844l3.828125 3.070312c20.832031 16.703125 30.582031 43.652344 25.261719 69.820313l.257812.546875-67.109375 31.960937 1.289063-17.230469c.519531-6.941406-1.667969-13.816406-6.109376-19.179687l-48.199218-58.328125c-9.109375-12.664062-13.898438-27.925781-13.660156-43.519531l19.699218-124.25c12.304688 1.207031 21.683594 11.546875 21.691406 23.90625 0 .402343-.011718.820312-.03125 1.230469zm0 0" fill="#f7caa5"/><path d="m284.246094 199.734375c-.09375-4.207031-3.460938-7.601563-7.667969-7.734375-3.609375-11.207031-14.078125-18.769531-25.851563-18.675781h-7.480468v-123.597657c7.03125-2.308593 12.707031-7.566406 15.542968-14.402343h66.226563l-33.769531 90.523437c-3.011719 1.226563-4.984375 4.152344-4.984375 7.40625 0 26.636719 20.40625 45.242188 49.621093 45.242188 29.390626 0 49.917969-18.601563 49.917969-45.242188 0-3.113281-1.808593-5.941406-4.636719-7.25l-37.488281-100.5c-.03125-.082031-.066406-.160156-.097656-.238281-.054687-.136719-.109375-.269531-.171875-.402344-.0625-.132812-.117188-.234375-.179688-.347656-.0625-.117187-.121093-.222656-.1875-.332031-.0625-.109375-.148437-.238282-.226562-.355469-.066406-.097656-.132812-.199219-.199219-.292969-.082031-.113281-.171875-.21875-.261719-.328125-.085937-.105469-.152343-.1875-.238281-.277343-.082031-.09375-.179687-.191407-.273437-.285157-.089844-.09375-.183594-.183593-.285156-.273437-.027344-.027344-.058594-.058594-.089844-.089844-1.519532-1.875-3.804688-2.960938-6.21875-2.957031h-75.257813c-2.835937-11.355469-13.035156-19.324219-24.742187-19.324219-11.703125 0-21.90625 7.96875-24.742188 19.324219h-75.257812c-2.410156 0-4.691406 1.085937-6.207032 2.960937-.03125.023438-.054687.050782-.082031.078125-.101562.09375-.203125.191407-.300781.289063-.101562.097656-.175781.175781-.261719.269531-.085937.09375-.167969.191406-.25.289063-.078125.101562-.167969.210937-.25.320312-.078125.109375-.140625.199219-.210937.300781-.066406.097657-.148438.226563-.222656.34375-.070313.117188-.125.226563-.1875.339844s-.121094.226563-.179688.34375c-.054688.121094-.117188.265625-.171875.402344-.03125.078125-.070313.152343-.097656.234375l-37.492188 100.507812c-2.824219 1.308594-4.632812 4.136719-4.636719 7.25 0 26.636719 20.402344 45.242188 49.621094 45.242188 29.390625 0 49.921875-18.601563 49.921875-45.242188-.003906-3.253906-1.976562-6.183594-4.992187-7.40625l-33.769532-90.523437h66.242188c2.863281 6.804687 8.523438 12.046875 15.527344 14.378906v123.621094h-7.480469c-11.773437-.09375-22.242187 7.46875-25.851563 18.675781-4.203124.132812-7.574218 3.527344-7.667968 7.734375v22.050781c0 4.417969 3.898437 7.539063 8.320312 7.539063h81.359375c4.417969 0 8.320313-3.121094 8.320313-7.539063zm79.558594-74.410156h-55.265626l27.636719-74.070313zm-27.929688 37.242187c-13.414062 0-28.773438-6.242187-32.675781-21.242187h65.597656c-3.878906 15-18.449219 21.242187-32.921875 21.242187zm-201.558594-111.3125 27.636719 74.070313h-55.261719zm0 111.3125c-13.414062 0-28.773437-6.242187-32.679687-21.242187h65.601562c-3.878906 15-18.457031 21.242187-32.921875 21.242187zm100.929688-146.570312c4.925781.007812 9.03125 3.773437 9.457031 8.679687-.417969 1.167969-.554687 2.417969-.386719 3.648438-1.453125 4.65625-6.195312 7.453125-10.972656 6.476562-4.777344-.976562-8.039062-5.410156-7.546875-10.261719.488281-4.851562 4.574219-8.542968 9.449219-8.542968zm15.480468 173.328125c2.578126.078125 5.105469.761719 7.371094 2h-45.703125c2.265625-1.238281 4.792969-1.921875 7.371094-2zm17.519532 24h-66v-6h66zm0 0" fill="#083863"/><path d="m450.359375 154.882812c-.660156-4.183593-4.46875-7.125-8.683594-6.710937-16.992187 1.644531-29.703125 16.339844-28.875 33.394531l1.210938 49.324219c-13.457031 1.730469-25.117188 10.160156-30.976563 22.394531l-18.421875 38.683594c-2.792969 5.839844-6.859375 10.976562-11.902343 15.035156l-3.828126 3.070313c-19.234374 15.34375-30.210937 38.785156-29.679687 63.382812l-5.808594-2.765625c-3.988281-1.898437-8.761719-.207031-10.660156 3.785156l-20.203125 42.417969c-1.898438 3.988281-.203125 8.761719 3.785156 10.664063l93.078125 44.320312c1.917969.914063 4.117188 1.027344 6.117188.316406 2-.707031 3.632812-2.183593 4.546875-4.097656l20.199218-42.414062c1.898438-3.988282.207032-8.761719-3.785156-10.660156l-3.363281-1.601563-.945313-12.601563c-.375-4.882812 1.167969-9.71875 4.296876-13.484374l48.203124-58.332032c.113282-.136718.21875-.277344.324219-.421875 10.082031-14.074219 15.394531-31.003906 15.167969-48.316406-.007812-.378906-.042969-.753906-.101562-1.128906zm-71.300781 299.109376-78.636719-37.441407 13.320313-27.972656 78.300781 37.289063.335937.160156zm63.097656-134.972657-48.023438 58.117188c-5.769531 6.949219-8.609374 15.871093-7.921874 24.875l.261718 3.484375-50.550781-24.078125c-3.441406-22.320313 5.320313-44.773438 22.972656-58.859375l3.832031-3.074219c6.921876-5.570313 12.507813-12.625 16.335938-20.640625l18.417969-38.671875c4.339843-9.082031 13.90625-14.472656 23.921875-13.488281l.0625.007812-26.25 55.113282c-1.902344 3.988281-.207032 8.761718 3.78125 10.664062 3.988281 1.898438 8.765625.203125 10.664062-3.785156l30.28125-63.578125c1.898438-3.992188.199219-8.769531-3.792968-10.667969-1.96875-.933594-4.007813-1.703125-6.105469-2.308594l-1.25-51.050781c0-.066406 0-.140625-.007813-.207031-.296875-5.699219 2.460938-11.125 7.234375-14.246094l18.144531 114.433594c.0625 13.601562-4.136718 26.878906-12.007812 37.964844zm0 0" fill="#083863"/><path d="m167.757812 374.476562c-1.898437-3.992187-6.671874-5.683593-10.664062-3.785156l-5.796875 2.765625c.527344-24.601562-10.449219-48.039062-29.679687-63.382812l-3.828126-3.066407c-5.042968-4.058593-9.113281-9.199218-11.90625-15.042968l-18.425781-38.683594c-5.859375-12.234375-17.519531-20.664062-30.972656-22.390625l1.207031-49.332031c.023438-.503906.035156-1.019532.035156-1.515625.050782-16.5-12.484374-30.316407-28.910156-31.871094-4.214844-.410156-8.019531 2.53125-8.679687 6.710937l-19.703125 124.25c-.058594.371094-.09375.75-.097656 1.128907-.230469 17.3125 5.085937 34.242187 15.164062 48.316406.101562.144531.214844.285156.328125.421875l48.199219 58.332031c3.128906 3.765625 4.671875 8.601563 4.300781 13.484375l-.945313 12.601563-3.367187 1.597656c-3.988281 1.902344-5.683594 6.675781-3.78125 10.664063l20.199219 42.410156c.910156 1.917968 2.546875 3.390625 4.546875 4.101562 2 .710938 4.199219.59375 6.113281-.320312l93.082031-44.320313c3.988281-1.898437 5.683594-6.671875 3.78125-10.660156zm-91.398437 2.664063-48.019531-58.117187c-7.875-11.085938-12.074219-24.363282-12.011719-37.960938l18.144531-114.445312c4.539063 2.957031 7.269532 8.011718 7.253906 13.425781 0 .273437-.007812.5625-.019531.84375 0 .0625-.007812.128906-.007812.191406l-1.253907 51.050781c-2.089843.605469-4.132812 1.375-6.097656 2.308594-3.996094 1.898438-5.691406 6.675781-3.792968 10.667969l30.28125 63.578125c1.898437 3.988281 6.675781 5.683594 10.664062 3.785156 3.988281-1.902344 5.683594-6.675781 3.78125-10.664062l-26.25-55.113282.058594-.007812c10.015625-.984375 19.578125 4.402344 23.921875 13.480468l18.417969 38.675782c3.832031 8.019531 9.417968 15.074218 16.34375 20.648437l3.828124 3.066407c17.652344 14.089843 26.414063 36.542968 22.972657 58.863281l-50.550781 24.074219.261718-3.480469c.6875-9.003907-2.152344-17.925781-7.921875-24.871094zm15.074219 76.851563-13.3125-27.96875 67.445312-32.117188 11.1875-5.332031 13.320313 27.972656zm0 0" fill="#083863"/></svg>